<svg width="413" height="164" xmlns="http://www.w3.org/2000/svg"><g fill="none" fill-rule="evenodd"><path d="M34.28 141.21c0 2.41.13 3.61.4 3.61h1.55c1.27 0 2.37-.04 3.3-.12.93-.08 1.93-.28 3-.6a6.92 6.92 0 0 0 2.59-1.35 6.73 6.73 0 0 0 1.66-2.42 9.2 9.2 0 0 0 .68-3.7c0-.82-.08-1.57-.24-2.25a4.84 4.84 0 0 0-.78-1.76 12.94 12.94 0 0 0-1.05-1.27 3.97 3.97 0 0 0-1.47-.9 77.3 77.3 0 0 0-1.56-.59 8.88 8.88 0 0 0-1.83-.37l-1.76-.2a63.91 63.91 0 0 0-1.85-.11 41.38 41.38 0 0 0-1.66-.08v1.86c-.04.36-.2 1.56-.52 3.61-.3 2.05-.46 3.68-.46 4.88v1.76zm-.88-37.2c0 1.46.05 3.64.15 6.54.1 2.9.14 5.08.14 6.54 0 .62.4.98 1.18 1.08.45-.07 1.24-.18 2.36-.32l2.67-.37c.65-.1 1.44-.33 2.36-.7a6.46 6.46 0 0 0 2.18-1.35c.52-.52.97-1.28 1.36-2.27.4-1 .59-2.16.59-3.5 0-4.94-3.42-7.41-10.25-7.41-1.37.23-2.17.45-2.4.68-.22.26-.34.62-.34 1.08zM5.37 153.4V87.7l42.2-1.47c2.6 0 5.04.16 7.32.49 2.27.33 4.58.94 6.9 1.83 2.33.9 4.32 2.05 5.96 3.47a15.73 15.73 0 0 1 4.03 5.64 19.78 19.78 0 0 1 1.56 8.1c0 4.07-.9 7.37-2.68 9.9-1.8 2.51-4.48 4.75-8.06 6.7 4.2 1.18 7.4 3.2 9.6 6.08 2.2 2.88 3.3 6.52 3.3 10.92 0 3.25-.63 6.17-1.86 8.76a18.41 18.41 0 0 1-4.79 6.32 25.94 25.94 0 0 1-6.88 4.06 37.37 37.37 0 0 1-7.84 2.27 47.37 47.37 0 0 1-7.94.66c-1.56 0-3.91-.04-7.05-.1-3.14-.07-5.51-.1-7.1-.1-9.06 0-17.36.13-24.9.4-1.08-1.73-1.67-4.47-1.77-8.21zm101.94-46.08c0 1.95.01 3.4.05 4.34.03.95.2 2.18.53 3.71.33 1.53.82 2.62 1.47 3.27 1.37 0 2.66-.14 3.88-.44a13.42 13.42 0 0 0 3.54-1.41 6.9 6.9 0 0 0 2.71-2.9 9.9 9.9 0 0 0 1-4.62c0-1.01-.18-1.9-.54-2.66a4.4 4.4 0 0 0-1.56-1.83 11.95 11.95 0 0 0-2.02-1.1 9.25 9.25 0 0 0-2.45-.59 41.26 41.26 0 0 0-2.27-.22 35.3 35.3 0 0 0-2-.05h-1.17c-.49.23-.8.69-.95 1.37-.15.68-.22 1.73-.22 3.13zm41.01 52.93c-.71.71-2.22 1.13-4.51 1.27-2.3.12-5.12.1-8.47-.1-3.36-.2-5.15-.3-5.38-.3-2.21 0-3.8-.03-4.78-.1h-4.88c-.72-.22-1.32-1.29-1.81-3.2s-.97-4.63-1.44-8.2l-.76-5.68c-.13-3.23-.65-5.35-1.56-6.38-.91-1.02-2.57-1.53-4.98-1.53h-2.15v23.82c-.06.4-.4.72-1.02.98s-1.51.43-2.67.51a59.91 59.91 0 0 1-6.61.13 177.18 177.18 0 0 0-2.69-.05h-7.03a300 300 0 0 0-8.98.1 13.63 13.63 0 0 1-1.37-.69V88c0-.91 1.3-1.37 3.9-1.37h42.58c7.4.2 13.02 1.95 16.87 5.28 3.86 3.32 5.79 8 5.79 14.06 0 7.88-3.97 13.64-11.91 17.28a14.91 14.91 0 0 1 6.89 4.52c.77.93 1.46 2.04 2.04 3.34a27.41 27.41 0 0 1 2.22 7.72c.25 1.56.42 2.91.52 4.05a641.85 641.85 0 0 0 .73 7.81v4.3c.1.52.4 1.25.9 2.2.5.94.82 1.64.95 2.1 0 .65-.13.97-.39.97zm36.94-29.84l1.36 2.3h3.23c2.6 0 4.99-.16 7.15-.47 2.17-.3 3.25-.8 3.25-1.49l-6.3-28.12c-.59 0-1.38 1.1-2.37 3.32-1 2.21-1.8 4.72-2.42 7.52l-3.9 16.94zm-33.89 29.64a547.18 547.18 0 0 1 6.69-22.7 1514.6 1514.6 0 0 1 9.1-27.57c3.64-10.7 6.12-18.09 7.45-22.2.4-.64.65-1.03.78-1.16h8.2c1.93 0 4.76-.03 8.5-.1 3.75-.07 6.58-.1 8.5-.1h8.2a13.49 13.49 0 0 1 2.4.15c.45.06.82.16 1.1.3.27.12.5.32.7.58.2.26.3.57.3.93l22.5 71.33c0 .65-.23 1.1-.7 1.35a6.5 6.5 0 0 1-2.66.36h-4.5c-1.3 0-3.24.02-5.8.05-2.58.03-4.52.05-5.82.05-.39 0-1.18.02-2.37.07-1.18.05-2.19.07-3 .05a44.31 44.31 0 0 1-2.71-.14c-1-.09-1.79-.27-2.4-.54-.6-.28-.98-.64-1.14-1.1v-3.22a14.11 14.11 0 0 0-1.7-4.5c-.82-1.36-1.68-2.05-2.6-2.05h-16.8l-2.53 10.36c-.36.78-2.18 1.17-5.47 1.17h-3.9c-1.4 0-3.5.05-6.26.14-2.76.1-4.85.15-6.25.15h-1.36c-.53 0-1.35.02-2.47.05a98.87 98.87 0 0 1-2.61.05c-.26-.26-.72-.85-1.37-1.76zm117.87 2.93c-3.84-.16-7.3-.5-10.35-1a43.24 43.24 0 0 1-8.86-2.44 24.07 24.07 0 0 1-7.18-4.25 20.42 20.42 0 0 1-4.83-6.57 26.23 26.23 0 0 1-2.37-9.28c0-.61.32-.97.97-1.07.2.07.52.1.98.1 2.7 0 6.8-.07 12.3-.2 5.5-.13 9.6-.2 12.31-.2.68 0 1.22.23 1.61.67.4.44.7.97.95 1.6.25.64.54 1.28.88 1.91.34.64.93 1.17 1.76 1.61.83.44 1.9.66 3.2.66 1.6 0 3-.45 4.22-1.34s1.83-2.1 1.83-3.64c0-1-.52-1.94-1.56-2.78a12.39 12.39 0 0 0-4.13-2.08 75.82 75.82 0 0 0-4.88-1.36 70.89 70.89 0 0 0-4.76-.98 68.19 68.19 0 0 1-2.83-.51c-7.91-2.15-13.6-4.82-17.07-8.01-3.46-3.2-5.2-7.55-5.2-13.09 0-3.9.72-7.41 2.15-10.52 1.43-3.1 3.3-5.65 5.62-7.62a30.84 30.84 0 0 1 8.2-4.93 43.25 43.25 0 0 1 9.57-2.78 60.82 60.82 0 0 1 10.01-.8c9.15 0 16.44 1.69 21.88 5.07 1.98 1.99 3.44 3.5 4.36 4.52a26.08 26.08 0 0 1 2.7 3.59 14.36 14.36 0 0 1 1.8 4.02c.34 1.32.57 2.94.7 4.86l-1.75 1.76c-6.68.26-14.16.4-22.46.4a7.61 7.61 0 0 1-2.52-.35c-.63-.23-1.06-.52-1.27-.88a32.41 32.41 0 0 1-.63-1.12l-.59-1.13c-.18-.35-.55-.65-1.12-.87a6.25 6.25 0 0 0-3.52-.2c-.57.1-1.23.25-2 .46a5.5 5.5 0 0 0-1.98.98c-.55.44-.83.95-.83 1.54 0 .72.37 1.37 1.1 1.95.74.59 1.5 1.01 2.32 1.27a55.05 55.05 0 0 0 3.03.86c1.2.3 1.95.5 2.25.6 7.1 1.8 11.32 2.9 12.69 3.33 7.13 2.24 12.17 5.19 15.14 8.83 2.73 3.4 4.1 7.64 4.1 12.75 0 3.1-.4 5.9-1.2 8.45a21.63 21.63 0 0 1-3.15 6.44 20.98 20.98 0 0 1-4.88 4.69 30.17 30.17 0 0 1-5.93 3.27c-2 .81-4.28 1.5-6.81 2.05-2.54.55-4.88.95-7.01 1.2a112.96 112.96 0 0 1-6.96.56m40.92-1.66c.13-9.47.36-16.4.68-20.8 0-13.67.2-27.54.59-41.6-.13-2.74-.2-4.76-.2-6.06v-1.46c-.13-1.43-.2-2.6-.2-3.52 0-.62.3-1.17.89-1.66 5.34.4 13.47.59 24.41.59 2.6 0 4.4-.07 5.37-.2v74.7h-31.54m42.09-66.5c0-5.3.55-8.26 1.66-8.88.32.06.78.1 1.37.1h1.56c1 0 2.67-.04 4.98-.1a203.54 203.54 0 0 1 5.27-.1c4.63 0 8.36.19 11.2.56 2.86.38 4.46 1.07 4.82 2.08l-.59 50.39h1.08a98 98 0 0 1 5.47-.17c1.04.01 2.95.08 5.73.2 2.79.1 5.46.16 8.04.16 2.11 0 3.68.13 4.7.37 1.03.24 1.55.74 1.55 1.49v18.75c-.43 1.17-7.69 1.76-21.78 1.76h-33.8c-.77-1.14-1.16-2.96-1.16-5.47v-13.87c0-4.07.03-10.09.1-18.06.06-7.98.1-14 .1-18.07 0-.75-.06-2.41-.15-4.98-.1-2.57-.15-4.62-.15-6.15" fill="#645A98"/><path d="M5.64 78.26V76.3c0-5.9.07-14.61.21-26.14.14-11.53.2-20.24.2-26.14V2.6H66.3v18.59c0 .13-.01.38-.05.75-.03.36-.1.6-.18.75l-.36.6c-.16.25-.34.43-.54.54a4.1 4.1 0 0 1-.83.28 4.7 4.7 0 0 1-1.14.13h-1.45c-8.94 0-17.08-.14-24.43-.41l-.34 2.56a87.09 87.09 0 0 0-.36 3.05c-.09.88-.13 1.74-.13 2.56h24.64c1.03 0 1.72.14 2.07.42.34.27.52.72.52 1.34 0 .18-.02.45-.06.83-.03.38-.05.66-.05.83 0 1.66.05 4.1.16 7.35.1 3.24.15 5.7.15 7.35-.1.69-.38 1.03-.83 1.03a.7.7 0 0 1-.51-.2c-10.9.55-18.98.82-24.23.82h-1.34v7.46c3.07 0 7.51-.14 13.33-.42 5.81-.27 10.17-.41 13.06-.41 2.28 0 3.6.48 3.94 1.45v3.93c0 1.66.03 4.1.1 7.35.07 3.24.1 5.7.1 7.35 0 1.73-.69 2.59-2.07 2.59-1.79 0-4.55-.02-8.28-.05a975.17 975.17 0 0 0-8.48-.05c-4.97 0-12.08.12-21.33.38-9.25.26-15.94.4-20.08.44l-1.45-1.65c-.14-.97-.2-1.59-.2-1.87m68.1-67.28c0-5.63.6-8.77 1.77-9.42.34.07.83.1 1.45.1h1.65c1.07 0 2.83-.03 5.28-.1s4.31-.1 5.6-.1c4.9 0 8.85.2 11.87.6 3.02.39 4.72 1.12 5.1 2.2l-.62 53.4h1.14c2.76-.13 4.69-.2 5.8-.18 1.1.02 3.12.09 6.07.21s5.8.18 8.52.18c2.24 0 3.9.13 5 .39 1.08.26 1.62.79 1.62 1.58V79.7c-.45 1.25-8.14 1.87-23.08 1.87H75.1c-.83-1.21-1.24-3.14-1.24-5.8v-14.7c0-4.31.04-10.7.1-19.15.07-8.45.1-14.84.1-19.15 0-.8-.04-2.55-.15-5.28-.1-2.72-.15-4.9-.15-6.52m64.38 70.5c.14-10.05.38-17.4.73-22.06 0-14.49.2-29.19.62-44.1-.14-2.9-.2-5.03-.2-6.41V7.36c-.15-1.52-.21-2.76-.21-3.73 0-.66.3-1.24.93-1.76 5.66.41 14.28.62 25.88.62 2.76 0 4.65-.07 5.69-.2v79.18h-33.44m37.48-1.34c0-.97.62-2.42 1.86-4.35 2.93-4.49 7.12-11 12.58-19.56a6894.74 6894.74 0 0 1 9.57-15.01 2195.73 2195.73 0 0 0-22.15-37.48v-.51c0-.38.2-.73.62-1.04 2.2 0 5.49.05 9.84.16a452.96 452.96 0 0 0 12.29.18c1.05.05 1.75.07 2.1.07h3.62c.76-.06 1.96-.1 3.62-.1.45.1 1.14.95 2.07 2.54a55.15 55.15 0 0 1 2.8 5.54l5.22 12.31 5.54-11.9 1.97-4.14c1.3-2.9 2.2-4.35 2.69-4.35l.13.03.23.07.26.1a4698.37 4698.37 0 0 1 20.24-.7c3.14-.08 6.19-.12 9.16-.12.96.2 1.45.97 1.45 2.28v.62a4351.8 4351.8 0 0 0-23.3 37.06l10.36 15.89 7.4 11.54a3042.65 3042.65 0 0 1 6.16 9.62v1.04c0 1.24-1.07 1.86-3.21 1.86-2.8 0-6.9.04-12.32.1-5.42.08-9.42.11-12 .11h-2.5c-1.82 0-3.2-.34-4.13-1.03l-9.47-20.03a54.17 54.17 0 0 0-1.12 2.6 164.78 164.78 0 0 1-1.4 3.37 375.27 375.27 0 0 1-1.57 3.63 57.45 57.45 0 0 1-1.79 3.7 57.97 57.97 0 0 1-1.86 3.26 17.08 17.08 0 0 1-2 2.66 6.12 6.12 0 0 1-2.01 1.53c-7.73-.14-13.4-.2-16.98-.2-1.48 0-3.6.01-6.36.04a560.38 560.38 0 0 1-6.37.06c-.83-.31-1.24-.8-1.24-1.45m88.92 1.34c.13-10.04.37-17.39.72-22.04 0-14.5.2-29.2.62-44.1-.14-2.9-.2-5.04-.2-6.42V7.36a42.4 42.4 0 0 1-.21-3.73c0-.66.3-1.24.93-1.76 5.66.41 14.29.62 25.88.62 2.76 0 4.66-.07 5.7-.2v79.18h-33.44m76.18-57.24c0 2.07.02 3.6.05 4.6.04 1 .23 2.32.57 3.94.35 1.62.87 2.78 1.56 3.47 1.45 0 2.82-.16 4.11-.47a14.2 14.2 0 0 0 3.75-1.5 7.32 7.32 0 0 0 2.88-3.08c.7-1.36 1.06-3 1.06-4.89a6.6 6.6 0 0 0-.57-2.82 4.66 4.66 0 0 0-1.66-1.94 12.69 12.69 0 0 0-2.15-1.17c-.7-.29-1.57-.5-2.58-.62a44.52 44.52 0 0 0-2.41-.23 37.38 37.38 0 0 0-2.12-.05h-1.24c-.52.24-.86.72-1.01 1.45-.16.72-.24 1.83-.24 3.3zm43.48 56.1c-.76.76-2.35 1.21-4.79 1.35-2.43.14-5.42.1-8.98-.1a338 338 0 0 0-5.7-.31c-2.34 0-4.03-.04-5.06-.1h-5.18c-.76-.25-1.4-1.38-1.91-3.4a79.03 79.03 0 0 1-1.53-8.7 2451.99 2451.99 0 0 0-.8-6.02c-.14-3.42-.7-5.67-1.66-6.76-.97-1.08-2.73-1.63-5.28-1.63h-2.28v25.26c-.06.41-.43.76-1.08 1.04-.66.27-1.6.45-2.82.54a63.41 63.41 0 0 1-3.26.15c-.95.02-2.2.01-3.76-.02a188 188 0 0 0-2.84-.05h-7.46c-4.2 0-7.38.03-9.52.1a14.08 14.08 0 0 1-1.45-.72V3.73c0-.96 1.38-1.45 4.14-1.45h45.13c7.84.21 13.8 2.07 17.89 5.6 4.08 3.51 6.13 8.48 6.13 14.9 0 8.35-4.21 14.46-12.63 18.32a15.82 15.82 0 0 1 7.3 4.79c.83.98 1.55 2.17 2.17 3.54a29.06 29.06 0 0 1 2.36 8.18c.26 1.66.44 3.1.54 4.3a683.05 683.05 0 0 0 .78 8.28v4.55c.1.56.42 1.33.95 2.33.54 1 .88 1.75 1.01 2.23 0 .69-.13 1.03-.41 1.03z" fill="#261F4F"/><path d="M178.23 132.26s0 13.84 11.33 14.33c12.32.54 15.15-7.93 15.15-7.93.03.35 2.17-9.23 0-9.07-1.06.08-6.69-13.01-11.13-10.33-4.32 2.61-4.7-10.75-6.04-9.68-8.28 6.68-9.3 22.68-9.3 22.68" fill="#382C74"/><path d="M175.62 80.6c-.07 1.13 15.26 6.66 15.76 12.66s-5.5 13.52-8.16 18.67c-3.96 7.64-7.84 28.33 8.16 28.83s16.58-15.17 12.23-21.15c-3.02-4.14-12.02-22.25-10.03-26.35 2.64-5.42 14.42-11.76 14.38-12.57-.04-.8-15.86-5.43-15.86-5.43s-16.42 4.2-16.48 5.33" fill="#261F4F"/><path d="M201.88 126.19a2.65 2.65 0 1 1-5.3 0 2.65 2.65 0 0 1 5.3 0m-4.34 5.39a.98.98 0 1 1-1.96 0 .98.98 0 0 1 1.96 0" fill="#F2F2F1"/></g></svg>
